<?xml version="1.0" encoding="utf-8"?>
<!-- Generator: Adobe Illustrator 24.2.1, SVG Export Plug-In . SVG Version: 6.00 Build 0)  -->
<svg version="1.1" id="Ebene_1" xmlns="http://www.w3.org/2000/svg" xmlns:xlink="http://www.w3.org/1999/xlink" x="0px" y="0px"
	 viewBox="0 0 241 241" style="enable-background:new 0 0 241 241;" xml:space="preserve">
<style type="text/css">
	.st0{display:none;fill:#FFFFFF;}
	.st1{fill:#0066A1;}
</style>
<path id="White" class="st0" d="M120.5,0.78c-66.2,0-120,53.8-120,120s53.8,120,120,120s120-53.8,120-120S186.7,0.78,120.5,0.78z
	 M120.5,233.78c-62.3,0-113-50.7-113-113s50.7-113,113-113s113,50.7,113,113S182.8,233.78,120.5,233.78z"/>
<path id="Blue" class="st1" d="M120.38,0.78c-66.2,0-120,53.8-120,120s53.8,120,120,120s120-53.8,120-120S186.58,0.78,120.38,0.78z
	 M120.38,233.78c-62.3,0-113-50.7-113-113s50.7-113,113-113s113,50.7,113,113S182.68,233.78,120.38,233.78z"/>
<g>
	<path class="st1" d="M151.87,186.54c-0.02,0-0.03,0-0.05,0c-5.31-0.04-8.08-4.28-9.27-6.09c-4.76-7.24-10.17-15.67-15.23-23.71
		c-2.24-3.56-4.5-6.76-7.46-6.76c0,0-0.01,0-0.01,0h-0.1c-2.92,0.05-5.16,3.23-7.39,6.76c-5,7.95-10.41,16.37-15.23,23.71
		c-1.29,1.96-3.97,6.05-9.27,6.08c-0.02,0-0.03,0-0.05,0c-2.6,0-5.13-1.45-6.63-3.8c-1.53-2.41-1.75-5.33-0.57-7.81
		c0.51-1.07,1.23-2.49,2.11-4.22c5.82-11.44,17.95-35.24,17.95-55.57c0-5.91-2.24-6.94-6.94-6.94H72.84c-4.81,0-8.72-3.91-8.72-8.72
		s3.91-8.72,8.72-8.72h38.94c-6.55-3.05-11.11-9.7-11.11-17.39c0-10.57,8.6-19.17,19.17-19.17c10.57,0,19.17,8.6,19.17,19.17
		c0,7.69-4.55,14.34-11.11,17.39h38.94c4.81,0,8.72,3.91,8.72,8.72s-3.91,8.72-8.72,8.72h-20.89c-4.71,0-6.94,1.04-6.94,6.94
		c0,20.33,12.12,44.12,17.95,55.56c0.88,1.73,1.61,3.16,2.11,4.22c1.18,2.48,0.96,5.4-0.57,7.81
		C157,185.08,154.46,186.54,151.87,186.54z M119.87,142.98c7.06,0,11.01,6.28,13.37,10.03c5.04,8,10.42,16.38,15.16,23.59
		c1.61,2.45,2.46,2.92,3.47,2.93h0c0.15,0,0.47-0.18,0.72-0.56c0.11-0.17,0.35-0.63,0.15-1.05c-0.48-1.02-1.18-2.39-2.03-4.04
		c-6.07-11.92-18.71-36.73-18.71-58.74c0-6.36,2.42-13.94,13.94-13.94h20.89c0.95,0,1.72-0.77,1.72-1.72s-0.77-1.72-1.72-1.72h-94
		c-0.95,0-1.72,0.77-1.72,1.72s0.77,1.72,1.72,1.72h20.89c11.53,0,13.94,7.58,13.94,13.94c0,22.01-12.64,46.82-18.71,58.74
		c-0.84,1.66-1.54,3.02-2.02,4.04c-0.2,0.42,0.04,0.87,0.15,1.04c0.24,0.38,0.57,0.56,0.72,0.56c0,0,0,0,0,0
		c1-0.01,1.85-0.48,3.46-2.93c4.79-7.3,10.18-15.68,15.15-23.59c2.35-3.73,6.28-9.95,13.25-10.04h0.16
		C119.85,142.98,119.86,142.98,119.87,142.98z M119.84,61.2c-6.71,0-12.17,5.46-12.17,12.17s5.46,12.17,12.17,12.17
		S132,80.08,132,73.37S126.55,61.2,119.84,61.2z"/>
</g>
</svg>
